<?xml version="1.0"?>
<svg xmlns="http://www.w3.org/2000/svg" id="light" enable-background="new 0 0 24 24" height="512px" viewBox="0 0 24 24" width="512px"><g><path d="m18.5 12.5h-4.84c-.276 0-.5-.224-.5-.5s.224-.5.5-.5h4.34v-3.77c0-.197.116-.377.297-.457.181-.082.392-.047.538.086 1.009.913 2.715.786 3.586-.257.483-.579.674-1.317.535-2.08-.174-.96-.96-1.769-1.912-1.966-.81-.166-1.613.046-2.208.583-.146.133-.356.169-.539.087-.181-.08-.297-.259-.297-.456v-1.77c0-.275-.225-.5-.5-.5h-11c-.275 0-.5.225-.5.5v10h4.34c.276 0 .5.224.5.5s-.224.5-.5.5h-4.84c-.276 0-.5-.224-.5-.5v-10.5c0-.827.673-1.5 1.5-1.5h11c.827 0 1.5.673 1.5 1.5v.837c.686-.326 1.468-.422 2.247-.259 1.362.282 2.444 1.394 2.693 2.767.189 1.043-.085 2.1-.752 2.899-1.002 1.199-2.803 1.579-4.188.917v3.339c0 .276-.224.5-.5.5z" data-original="#000000" class="active-path" data-old_color="#000000" fill="#BDBDBD"/><path d="m17.5 24h-11c-.827 0-1.5-.673-1.5-1.5v-1.837c-.685.327-1.466.424-2.247.259-1.362-.282-2.444-1.394-2.693-2.767-.189-1.043.085-2.1.752-2.899 1.001-1.199 2.802-1.579 4.188-.917v-2.339c0-.276.224-.5.5-.5h4.84c.276 0 .5.224.5.5s-.224.5-.5.5h-4.34v2.77c0 .197-.116.377-.297.457-.182.081-.392.047-.538-.086-1.008-.911-2.714-.785-3.586.257-.483.579-.674 1.317-.535 2.08.174.96.96 1.769 1.912 1.966.808.166 1.613-.046 2.208-.583.146-.132.356-.168.539-.087.181.08.297.259.297.456v2.77c0 .275.225.5.5.5h11c.275 0 .5-.225.5-.5v-1.839c-1.385.662-3.186.282-4.188-.917-.667-.8-.941-1.856-.752-2.899.249-1.373 1.331-2.484 2.693-2.767.779-.165 1.562-.068 2.247.259v-1.837h-4.34c-.276 0-.5-.224-.5-.5s.224-.5.5-.5h4.84c.276 0 .5.224.5.5v3.27c0 .197-.116.377-.297.457-.183.081-.394.045-.539-.087-.595-.538-1.398-.75-2.208-.583-.952.197-1.738 1.006-1.912 1.966-.139.763.052 1.501.535 2.08.871 1.042 2.577 1.169 3.586.257.147-.133.356-.166.538-.086.181.08.297.259.297.456v2.77c0 .827-.673 1.5-1.5 1.5z" data-original="#000000" class="active-path" data-old_color="#000000" fill="#BDBDBD"/><path d="m13.66 12.5c-.161 0-.319-.078-.416-.223-.153-.229-.091-.54.139-.693.699-.467 1.117-1.246 1.117-2.084 0-1.379-1.121-2.5-2.5-2.5s-2.5 1.121-2.5 2.5c0 .838.418 1.617 1.117 2.084.229.153.292.464.139.693-.153.23-.465.291-.693.139-.979-.652-1.563-1.743-1.563-2.916 0-1.93 1.57-3.5 3.5-3.5s3.5 1.57 3.5 3.5c0 1.173-.584 2.264-1.563 2.916-.084.057-.181.084-.277.084z" data-original="#000000" class="active-path" data-old_color="#000000" fill="#BDBDBD"/><link xmlns="" type="text/css" rel="stylesheet" id="dark-mode-general-link" class="active-path"/><link xmlns="" type="text/css" rel="stylesheet" id="dark-mode-custom-link" class="active-path"/><style xmlns="" type="text/css" id="dark-mode-custom-style" class="active-path"/></g> <link type="text/css" rel="stylesheet" id="dark-mode-general-link"/></svg>
